<svg width="16" height="18" viewBox="0 0 16 18" fill="none" xmlns="http://www.w3.org/2000/svg">
<path d="M14.2857 0H1.71429C1.25963 0 0.823594 0.198895 0.502103 0.552929C0.180612 0.906964 0 1.38714 0 1.88782L0 15.7318C0 16.2325 0.180612 16.7127 0.502103 17.0667C0.823594 17.4207 1.25963 17.6196 1.71429 17.6196H14.2857C14.7404 17.6196 15.1764 17.4207 15.4979 17.0667C15.8194 16.7127 16 16.2325 16 15.7318V1.88782C16 1.38714 15.8194 0.906964 15.4979 0.552929C15.1764 0.198895 14.7404 0 14.2857 0V0ZM13.7004 12.0887L13.1646 14.6451C13.1374 14.7751 13.071 14.8911 12.9763 14.9742C12.8815 15.0572 12.764 15.1025 12.6429 15.1025C6.92857 15.1025 2.28572 10.0011 2.28572 3.69698C2.28997 3.56485 2.33261 3.43772 2.40739 3.33428C2.48216 3.23084 2.5851 3.15656 2.70107 3.12237L5.0225 2.53243C5.0621 2.52321 5.10239 2.51807 5.14286 2.51709C5.24645 2.52285 5.34676 2.55904 5.43337 2.62191C5.51997 2.68477 5.58972 2.77202 5.63536 2.8746L6.70679 5.62766C6.73303 5.70189 6.74764 5.78049 6.75 5.8601C6.74128 6.03474 6.67076 6.19866 6.55357 6.31672L5.20036 7.53593C6.02029 9.44968 7.41896 10.9899 9.15679 11.8929L10.2639 10.4027C10.3711 10.2736 10.52 10.196 10.6786 10.1864C10.7509 10.1889 10.8223 10.205 10.8896 10.2339L13.3896 11.4138C13.4828 11.464 13.5621 11.5408 13.6192 11.6362C13.6763 11.7316 13.7091 11.8421 13.7143 11.9562C13.7136 12.0008 13.7089 12.0451 13.7004 12.0887Z" fill="black"/>
</svg>
