<svg width="14" height="13" viewBox="0 0 14 13" fill="none" xmlns="http://www.w3.org/2000/svg">
<path d="M3.87539 11.375C3.25532 11.375 2.63526 10.8063 2.32523 10.5625C0.775077 9.425 0.310031 9.01875 0 8.775V12.1875C0 12.6362 0.347089 13 0.775077 13H6.97569C7.40368 13 7.75077 12.6362 7.75077 12.1875V8.775C7.44074 9.01875 6.97569 9.425 5.42554 10.5625C5.11551 10.8063 4.49545 11.375 3.87539 11.375ZM6.97569 6.5H0.775077C0.347089 6.5 0 6.86385 0 7.3125V7.71875C0.620062 8.20625 0.542554 8.20625 2.79028 9.9125C3.0228 10.075 3.48785 10.5625 3.87539 10.5625C4.26292 10.5625 4.72797 10.075 4.96049 9.99375C7.20822 8.2875 7.13071 8.2875 7.75077 7.8V7.3125C7.75077 6.86385 7.40368 6.5 6.97569 6.5ZM13.1763 4.0625H5.42554C4.99755 4.0625 4.65046 4.42635 4.65046 4.875V5.6875H6.97569C7.78008 5.6875 8.44325 6.33293 8.51882 7.15559L8.52585 7.15V10.5625H13.1763C13.6043 10.5625 13.9514 10.1987 13.9514 9.75V4.875C13.9514 4.42635 13.6043 4.0625 13.1763 4.0625ZM12.4012 7.3125H10.8511V5.6875H12.4012V7.3125ZM3.87539 4.875C3.87539 3.97897 4.57078 3.25 5.42554 3.25H10.8511V0.8125C10.8511 0.363848 10.504 0 10.076 0H2.32523C1.89724 0 1.55015 0.363848 1.55015 0.8125V5.6875H3.87539V4.875Z" fill="black"/>
</svg>
