<svg width="14" height="16" viewBox="0 0 14 16" fill="none" xmlns="http://www.w3.org/2000/svg">
<path d="M12.5 7.70859H4.74999V4.60409C4.74999 3.41167 5.74061 2.421 6.97811 2.40895C8.22811 2.39691 9.24998 3.37553 9.24998 4.57699V5.05877C9.24998 5.45925 9.58436 5.78145 9.99998 5.78145H11C11.4156 5.78145 11.75 5.45925 11.75 5.05877V4.57699C11.75 2.04762 9.60936 -0.00900382 6.98436 2.96454e-05C4.35937 0.00906311 2.25 2.09278 2.25 4.62215V7.70859H1.5C0.671874 7.70859 0 8.35598 0 9.15394V13.9718C0 14.7697 0.671874 15.4171 1.5 15.4171H12.5C13.3281 15.4171 14 14.7697 14 13.9718V9.15394C14 8.35598 13.3281 7.70859 12.5 7.70859ZM8.24998 12.2855C8.24998 12.951 7.69061 13.49 6.99999 13.49C6.30936 13.49 5.74999 12.951 5.74999 12.2855V10.8402C5.74999 10.1747 6.30936 9.63573 6.99999 9.63573C7.69061 9.63573 8.24998 10.1747 8.24998 10.8402V12.2855Z" fill="black"/>
</svg>
